<svg width="35" height="35" viewBox="0 0 35 35" fill="none" xmlns="http://www.w3.org/2000/svg">
<path fill-rule="evenodd" clip-rule="evenodd" d="M16.9927 0C20.8109 0 24.1107 1.47891 25.7519 3.6378H33.4218C33.4218 3.6378 18.9691 13.5589 0.903291 20.0628L0 18.299V3.6378H8.22176C9.86485 1.47803 13.1727 0 16.9927 0ZM33.4213 4.5195V5.8424C24.9529 15.1021 6.32252 27.5587 6.32252 27.5587L2.82227 23.48C14.0005 18.5194 33.4213 4.5195 33.4213 4.5195ZM9.10547 30.2161C18.7002 22.7343 34.021 6.7246 34.021 6.7246L34.0192 8.6162C27.2689 19.4016 13.5226 33.3345 13.5226 33.3345L9.10547 30.2161ZM16.9922 34.9998H17.8395C17.8395 34.9998 28.8045 28.9915 34.0201 19.1806V10.8027C34.0201 10.8027 21.3957 31.4723 16.9922 34.9998Z" fill="url(#paint0_linear_1480_236)"/>
<defs>
<linearGradient id="paint0_linear_1480_236" x1="7" y1="6" x2="28.5" y2="23" gradientUnits="userSpaceOnUse">
<stop stop-color="#EB4F87"/>
<stop offset="1" stop-color="#4DA4E2"/>
</linearGradient>
</defs>
</svg>
